# xmcd CD database file
#
# Track frame offsets:
#	150
#	15532
#	29606
#	46456
#	61250
#	73179
#	90325
#	105303
#	119764
#	133015
#
# Disc length: 2005 seconds
#
# Revision: 1
# Processed by: cddbd v1.5.2PL0 Copyright (c) Steve Scherf et al.
# Submitted via: CDex 1.51
#
DISCID=8607d30a
DTITLE=Christie Lamb - Broken Lines
DYEAR=2019
DGENRE=Country
TTITLE0=Broken Lines
TTITLE1=Old Country Soul
TTITLE2=Carry You With Me
TTITLE3=Hot Hot Kiss
TTITLE4=You Brought The Party
TTITLE5=Fix This Broken Heart
TTITLE6=Five Minutes
TTITLE7=Ain't My First Drink
TTITLE8=Hips
TTITLE9=We're All In It Together
EXTD=YEAR: 2019
EXTT0=
EXTT1=
EXTT2=
EXTT3=
EXTT4=
EXTT5=
EXTT6=
EXTT7=
EXTT8=
EXTT9=
PLAYORDER=
